G04*
G04 #@! TF.GenerationSoftware,Altium Limited,Altium Designer,23.0.1 (38)*
G04*
G04 Layer_Physical_Order=2*
G04 Layer_Color=36540*
%FSLAX25Y25*%
%MOIN*%
G70*
G04*
G04 #@! TF.SameCoordinates,382624F3-9DB8-427B-A981-9488CFEE9D80*
G04*
G04*
G04 #@! TF.FilePolarity,Positive*
G04*
G01*
G75*
%ADD11C,0.01000*%
%ADD45C,0.02000*%
%ADD47C,0.03000*%
%ADD48O,0.03740X0.05906*%
%ADD49R,0.03740X0.05906*%
%ADD50O,0.03543X0.07874*%
%ADD51O,0.03543X0.07874*%
%ADD52C,0.02559*%
%ADD53C,0.02362*%
G36*
X125098Y124213D02*
X134646Y114665D01*
Y77880D01*
X134099D01*
X133392Y77690D01*
X132758Y77324D01*
X132240Y76807D01*
X131874Y76173D01*
X131685Y75466D01*
Y74734D01*
X131874Y74027D01*
X132240Y73393D01*
X132758Y72876D01*
X133392Y72510D01*
X134099Y72320D01*
X134646D01*
Y60335D01*
X129429D01*
X129232Y60532D01*
Y109449D01*
X122736Y115945D01*
Y117028D01*
Y124213D01*
X125098Y124213D01*
D02*
G37*
G36*
X62992Y102061D02*
X62540Y101608D01*
X62174Y100974D01*
X61984Y100268D01*
Y99536D01*
X62174Y98829D01*
X62540Y98195D01*
X62992Y97742D01*
Y90256D01*
X63090Y90158D01*
X59004Y86071D01*
Y69193D01*
X60023D01*
X60120Y69066D01*
Y68334D01*
X60310Y67627D01*
X60676Y66993D01*
X61193Y66476D01*
X61827Y66110D01*
X62534Y65921D01*
X63266D01*
X63973Y66110D01*
X64607Y66476D01*
X65124Y66993D01*
X65490Y67627D01*
X65680Y68334D01*
Y69066D01*
X65777Y69193D01*
X85154D01*
Y61614D01*
X85055Y61516D01*
X59004D01*
Y47886D01*
X70276Y36614D01*
Y26870D01*
X58169D01*
X37894Y47146D01*
Y75787D01*
X54429Y92323D01*
Y103042D01*
X54715Y103119D01*
X55348Y103484D01*
X55866Y104002D01*
X56232Y104636D01*
X56421Y105343D01*
Y106075D01*
X56232Y106781D01*
X55866Y107415D01*
X55348Y107933D01*
X54715Y108299D01*
X54429Y108375D01*
Y118307D01*
X62992D01*
Y102061D01*
D02*
G37*
%LPC*%
G36*
X48266Y77179D02*
X47534D01*
X46827Y76990D01*
X46193Y76624D01*
X45676Y76107D01*
X45310Y75473D01*
X45120Y74766D01*
Y74034D01*
X45310Y73327D01*
X45676Y72693D01*
X46193Y72176D01*
X46827Y71810D01*
X47534Y71621D01*
X48266D01*
X48973Y71810D01*
X49607Y72176D01*
X50124Y72693D01*
X50490Y73327D01*
X50679Y74034D01*
Y74766D01*
X50490Y75473D01*
X50124Y76107D01*
X49607Y76624D01*
X48973Y76990D01*
X48266Y77179D01*
D02*
G37*
%LPD*%
D11*
X68442Y77818D02*
Y107282D01*
X68619Y107459D01*
X147661Y48425D02*
Y122739D01*
X140256Y41020D02*
X147661Y48425D01*
X134400Y136000D02*
X147661Y122739D01*
X140256Y31693D02*
Y41020D01*
X109646Y100070D02*
Y100492D01*
Y100070D02*
X110925Y98791D01*
Y32972D02*
Y98791D01*
X95866Y33957D02*
X99213Y30610D01*
X84168Y132791D02*
X87378Y136000D01*
X134400D01*
X84000Y129110D02*
X84168Y129279D01*
Y132791D01*
X16000Y36000D02*
X35500Y16500D01*
X39000D01*
Y11000D02*
Y16500D01*
X82874Y25591D02*
Y41732D01*
X74000Y16716D02*
X82874Y25591D01*
X74000Y11000D02*
Y16716D01*
X78445Y27854D02*
Y41535D01*
X64524Y13934D02*
X78445Y27854D01*
X82874Y41732D02*
X91929Y50787D01*
X56900Y16500D02*
X60872Y20472D01*
X65650D01*
X81000Y81422D02*
X82713Y83134D01*
Y116112D01*
X81000Y81000D02*
Y81422D01*
X82713Y116112D02*
X89000Y122400D01*
X91227Y107434D02*
X93000Y105661D01*
X85538Y107434D02*
X91227D01*
X68442Y77818D02*
X71933Y74326D01*
Y74252D02*
Y74326D01*
X88386Y81102D02*
Y104331D01*
Y81102D02*
X95866Y73622D01*
X93000Y85839D02*
Y105661D01*
Y85839D02*
X97736Y81102D01*
X125492Y41240D02*
Y60608D01*
X122400Y63700D02*
X125492Y60608D01*
X68619Y107459D02*
Y128729D01*
X64524Y11524D02*
Y13934D01*
X64000Y11000D02*
X64524Y11524D01*
X122400Y63700D02*
Y105100D01*
X78445Y41535D02*
X92421Y55512D01*
X95866Y33957D02*
Y73622D01*
X84000Y11000D02*
Y16579D01*
X87598Y20177D02*
X95177D01*
X84000Y16579D02*
X87598Y20177D01*
X68619Y128729D02*
X69000Y129110D01*
X89000Y122400D02*
Y129110D01*
X49000Y119800D02*
Y129110D01*
X18300Y89100D02*
X49000Y119800D01*
X18300Y43300D02*
Y89100D01*
X39000Y16500D02*
X56900D01*
D45*
X124000Y33252D02*
X142421Y51673D01*
Y59646D01*
X97400Y89781D02*
Y118590D01*
X95276Y120715D02*
X97400Y118590D01*
X95276Y120715D02*
Y120866D01*
X124000Y14976D02*
Y33252D01*
Y11000D02*
Y14976D01*
X106595Y32382D02*
X124000Y14976D01*
X97400Y89781D02*
X106595Y80587D01*
Y32382D02*
Y80587D01*
X130856Y75148D02*
X130905Y75197D01*
X130856Y63337D02*
Y75148D01*
X130905Y75197D02*
Y79905D01*
X130807Y63287D02*
X130856Y63337D01*
X130905Y79905D02*
X132500Y81500D01*
X6004Y87697D02*
X39000Y120693D01*
Y129110D01*
X124000Y119602D02*
Y129110D01*
X132500Y97100D02*
Y111102D01*
X124000Y119602D02*
X132500Y111102D01*
Y81500D02*
Y97100D01*
D47*
X50600Y44282D02*
X65785Y29097D01*
X59000Y94039D02*
Y105272D01*
X58268Y106004D02*
X59000Y106736D01*
Y129110D01*
X58268Y106004D02*
X59000Y105272D01*
X40157Y75197D02*
X59000Y94039D01*
X65785Y29097D02*
X68270D01*
X68307Y29134D01*
X50600Y44282D02*
Y53600D01*
X39700Y64500D02*
X50600Y53600D01*
X39700Y64500D02*
X40157Y64957D01*
Y75197D01*
D48*
X39000Y11000D02*
D03*
X59000Y129110D02*
D03*
X24000Y11000D02*
D03*
X19000D02*
D03*
X29000D02*
D03*
X34000D02*
D03*
X44000D02*
D03*
X49000D02*
D03*
X54000D02*
D03*
X59000D02*
D03*
X64000D02*
D03*
X69000D02*
D03*
X74000D02*
D03*
X79000D02*
D03*
X84000D02*
D03*
X89000D02*
D03*
X94000D02*
D03*
X99000D02*
D03*
X104000D02*
D03*
X109000D02*
D03*
X114000D02*
D03*
X119000D02*
D03*
X124000D02*
D03*
X129000D02*
D03*
X124000Y129110D02*
D03*
X119000D02*
D03*
X114000D02*
D03*
X109000D02*
D03*
X104000D02*
D03*
X99000D02*
D03*
X94000D02*
D03*
X89000D02*
D03*
X84000D02*
D03*
X79000D02*
D03*
X74000D02*
D03*
X69000D02*
D03*
X64000D02*
D03*
X54000D02*
D03*
X49000D02*
D03*
X44000D02*
D03*
X39000D02*
D03*
X34000D02*
D03*
X29000D02*
D03*
X24000D02*
D03*
X19000D02*
D03*
X14000D02*
D03*
D49*
Y11000D02*
D03*
X129000Y129110D02*
D03*
D50*
X70000Y55500D02*
D03*
X75000D02*
D03*
D51*
X80000D02*
D03*
D52*
X68442Y107459D02*
D03*
X129429Y52756D02*
D03*
X136713Y57382D02*
D03*
X102461Y32480D02*
D03*
X102657Y52165D02*
D03*
X110925Y32972D02*
D03*
X113705Y73425D02*
D03*
X99213Y30610D02*
D03*
X28445Y41634D02*
D03*
X69095Y42520D02*
D03*
X82480Y64295D02*
D03*
X65650Y20472D02*
D03*
X58268Y106004D02*
D03*
X77658Y103150D02*
D03*
X85538Y107434D02*
D03*
X100492Y55413D02*
D03*
X71933Y74252D02*
D03*
X71398Y89900D02*
D03*
X97736Y81102D02*
D03*
X88386Y104331D02*
D03*
X53642Y105709D02*
D03*
X64764Y99902D02*
D03*
X50000Y21555D02*
D03*
X130905Y75197D02*
D03*
X134465Y75100D02*
D03*
X6004Y87697D02*
D03*
X125492Y41240D02*
D03*
X54626Y122244D02*
D03*
X95276Y120866D02*
D03*
X72146Y117815D02*
D03*
X109646Y100492D02*
D03*
X130807Y63287D02*
D03*
X138583Y98032D02*
D03*
X117717Y27362D02*
D03*
X117028Y53051D02*
D03*
X91929Y50787D02*
D03*
X92421Y55512D02*
D03*
X95177Y20177D02*
D03*
X115453Y93701D02*
D03*
X122638Y54528D02*
D03*
X89272Y28543D02*
D03*
X122400Y105100D02*
D03*
X39700Y64500D02*
D03*
X63300Y85000D02*
D03*
X30000Y106200D02*
D03*
X35500Y78900D02*
D03*
X47900Y74400D02*
D03*
X44200Y87700D02*
D03*
X81000Y81000D02*
D03*
X97400Y89781D02*
D03*
X79800Y90700D02*
D03*
X75700Y90600D02*
D03*
X49200Y96700D02*
D03*
X132500Y97100D02*
D03*
X62900Y68700D02*
D03*
X18300Y43300D02*
D03*
X50600Y53600D02*
D03*
X34600Y66400D02*
D03*
X24300Y62400D02*
D03*
X29200Y49600D02*
D03*
X16000Y36000D02*
D03*
D53*
X140256Y31693D02*
D03*
X142421Y59646D02*
D03*
X64075Y31004D02*
D03*
M02*
