G04*
G04 #@! TF.GenerationSoftware,Altium Limited,Altium Designer,23.0.1 (38)*
G04*
G04 Layer_Physical_Order=4*
G04 Layer_Color=16711680*
%FSLAX25Y25*%
%MOIN*%
G70*
G04*
G04 #@! TF.SameCoordinates,382624F3-9DB8-427B-A981-9488CFEE9D80*
G04*
G04*
G04 #@! TF.FilePolarity,Positive*
G04*
G01*
G75*
%ADD11C,0.01000*%
%ADD17R,0.02756X0.05118*%
%ADD18R,0.03937X0.02362*%
%ADD19R,0.03543X0.05118*%
%ADD20R,0.07087X0.04528*%
%ADD21R,0.03543X0.03740*%
%ADD22O,0.05118X0.02362*%
%ADD23R,0.03543X0.03740*%
%ADD26R,0.05118X0.02362*%
%ADD44C,0.01500*%
%ADD45C,0.02000*%
%ADD46C,0.02500*%
%ADD47C,0.03000*%
%ADD48O,0.03740X0.05906*%
%ADD49R,0.03740X0.05906*%
%ADD50O,0.03543X0.07874*%
%ADD51O,0.03543X0.07874*%
%ADD52C,0.02559*%
%ADD53C,0.02362*%
%ADD54O,0.02756X0.06299*%
%ADD55R,0.02756X0.06299*%
%ADD56R,0.04528X0.07087*%
%ADD57R,0.03740X0.03543*%
%ADD58R,0.03740X0.03543*%
%ADD59R,0.11024X0.10000*%
G36*
X40740Y66691D02*
X42118D01*
X42323Y66276D01*
Y62992D01*
X39370Y60039D01*
X26575D01*
Y51181D01*
X24902Y49508D01*
Y22539D01*
X25591Y21850D01*
X25591Y15072D01*
X25091Y14738D01*
X25000Y14775D01*
Y11000D01*
X23000D01*
Y14775D01*
X22553Y14590D01*
X22142Y14275D01*
X19685Y16732D01*
Y40890D01*
X20007Y41076D01*
X20524Y41593D01*
X20890Y42227D01*
X21080Y42934D01*
Y43666D01*
X20890Y44373D01*
X20524Y45007D01*
X20007Y45524D01*
X19685Y45710D01*
Y49213D01*
X21654Y51181D01*
Y63976D01*
X33239D01*
X33527Y63810D01*
X34234Y63621D01*
X34966D01*
X35673Y63810D01*
X35961Y63976D01*
X38386D01*
Y66691D01*
X38740D01*
Y70250D01*
X40740D01*
Y66691D01*
D02*
G37*
G36*
X11829Y132079D02*
X11493Y131640D01*
X11204Y130942D01*
X11105Y130193D01*
Y130110D01*
X14000D01*
Y129110D01*
X15000D01*
Y125335D01*
X15248Y125438D01*
X15748Y125168D01*
Y122244D01*
X22244Y115748D01*
X32972D01*
Y115059D01*
X29882D01*
Y112500D01*
X32260D01*
Y110500D01*
X29882D01*
Y107941D01*
X32972D01*
Y104724D01*
X8268D01*
X7874Y105118D01*
Y132480D01*
X7972Y132579D01*
X11616D01*
X11829Y132079D01*
D02*
G37*
%LPC*%
G36*
X13000Y128110D02*
X11105D01*
Y128028D01*
X11204Y127278D01*
X11493Y126580D01*
X11953Y125981D01*
X12553Y125521D01*
X13000Y125335D01*
Y128110D01*
D02*
G37*
%LPD*%
D11*
X68442Y107459D02*
X68882Y107900D01*
Y110482D01*
X136146Y22465D02*
Y43185D01*
X132480Y46850D02*
X136146Y43185D01*
X129921Y46850D02*
X132480D01*
X126650Y50122D02*
X129921Y46850D01*
X126650Y54701D02*
X135780Y63831D01*
X126650Y50122D02*
Y54701D01*
X137436Y63831D02*
X139200Y65595D01*
X135780Y63831D02*
X137436D01*
X129429Y52658D02*
X132776D01*
X132776Y19094D02*
X136146Y22465D01*
X116012Y19094D02*
X132776D01*
X109000Y12083D02*
X116012Y19094D01*
X109000Y11000D02*
Y12083D01*
X140354Y39764D02*
X146555Y45965D01*
X135400Y136000D02*
X146555Y124845D01*
Y45965D02*
Y124845D01*
X140157Y26476D02*
Y31594D01*
X140256Y31693D01*
Y52658D02*
Y53445D01*
X136713Y56988D02*
Y57382D01*
Y56988D02*
X140256Y53445D01*
X99606Y52067D02*
X102559D01*
X102657Y52165D01*
X116732Y71063D02*
Y71850D01*
X115461Y73122D02*
X116732Y71850D01*
X107421Y36443D02*
Y38181D01*
X114430Y73122D02*
X115461D01*
X110892Y32972D02*
X110925D01*
X114127Y73425D02*
X114430Y73122D01*
X107421Y36443D02*
X110892Y32972D01*
X113705Y73425D02*
X114127D01*
X99262Y25344D02*
Y30561D01*
Y25344D02*
X99311Y25295D01*
X99213Y30610D02*
X99262Y30561D01*
X88433Y71607D02*
X89679D01*
X83098Y76941D02*
X88433Y71607D01*
X72638Y76941D02*
X83098D01*
X89679Y71607D02*
X90360Y70926D01*
X34000Y124169D02*
X39740Y118429D01*
Y111500D02*
Y118429D01*
X34000Y124169D02*
Y129110D01*
X97421Y54252D02*
Y60638D01*
Y54252D02*
X99606Y52067D01*
X32260Y35559D02*
Y35756D01*
X28525Y32021D02*
X30791Y34287D01*
X28525Y25845D02*
Y32021D01*
X30988Y34287D02*
X32260Y35559D01*
X30791Y34287D02*
X30988D01*
Y37028D02*
X32260Y35756D01*
X30890Y37028D02*
X30988D01*
X28445Y39472D02*
X30890Y37028D01*
X28445Y39472D02*
Y41634D01*
X72260Y43398D02*
Y43500D01*
X69095Y42520D02*
X71382D01*
X72260Y43398D01*
X64975Y33896D02*
X66756Y32114D01*
X64975Y33896D02*
Y37039D01*
Y26039D02*
X65762D01*
X66443Y26720D02*
Y29261D01*
X66756Y29574D01*
X65762Y26039D02*
X66443Y26720D01*
X66756Y29574D02*
Y32114D01*
Y32000D02*
X72260D01*
X65650Y20472D02*
X72232D01*
X72260Y20500D01*
X59441Y57760D02*
X63173D01*
X75826Y70413D01*
X83459D01*
X59342Y57760D02*
X59441D01*
X48130Y60228D02*
X49402Y61500D01*
X48130Y60130D02*
Y60228D01*
X39500Y56000D02*
X44000D01*
X49402Y61500D02*
X49500D01*
X44000Y56000D02*
X48130Y60130D01*
X40772Y36689D02*
Y54728D01*
X39740Y35658D02*
X40772Y36689D01*
X39740Y35559D02*
Y35658D01*
X57972Y59031D02*
X59244Y57760D01*
X42400Y75600D02*
X57972Y60028D01*
X31000Y75600D02*
X42400D01*
X57972Y59031D02*
Y60028D01*
X32260Y85181D02*
X37827Y90748D01*
X48352D02*
X51093Y88007D01*
X37827Y90748D02*
X48352D01*
X59240Y110713D02*
X61736Y108217D01*
Y95364D02*
Y108217D01*
Y95364D02*
X70880Y86221D01*
X77658Y98620D02*
X77740Y98537D01*
X77658Y98620D02*
Y103150D01*
X77354Y111614D02*
X81358D01*
X85538Y107434D01*
X69760Y79819D02*
X72638Y76941D01*
X70260Y97750D02*
X71398Y96611D01*
Y89900D02*
Y96611D01*
X103419Y96761D02*
X105914D01*
X103158Y96500D02*
X103419Y96761D01*
X105914D02*
X109646Y100492D01*
X103740Y43701D02*
X115453D01*
X102421Y42382D02*
X103740Y43701D01*
X115453D02*
X117276Y41877D01*
Y38326D02*
X117421Y38181D01*
X117276Y38326D02*
Y41877D01*
X117421Y36409D02*
Y38181D01*
X102421D02*
Y42382D01*
X55830Y25961D02*
X69000Y12791D01*
X50025Y25961D02*
X55830D01*
X129100Y116000D02*
X143300Y101800D01*
Y80226D02*
Y101800D01*
X70880Y86221D02*
X100886D01*
X104823Y82284D01*
X68400Y82743D02*
X69073Y82069D01*
X53642Y99213D02*
X68400Y84455D01*
X53642Y99213D02*
Y105709D01*
X68400Y82743D02*
Y84455D01*
X68882Y81878D02*
X69073Y82069D01*
X68882Y81878D02*
X69760Y81000D01*
X94393D02*
X94496Y81102D01*
X97736D01*
X81000Y81000D02*
X86913D01*
X76483D02*
X81000D01*
X96500Y105449D02*
Y111500D01*
X95291Y104240D02*
X96500Y105449D01*
X89020Y111500D02*
Y116000D01*
X84500Y120520D02*
X89020Y116000D01*
X77240Y111500D02*
X77354Y111614D01*
X86221Y104240D02*
X88295D01*
X88386Y104331D01*
X88476Y104240D01*
X95291D01*
X83443D02*
X86221D01*
Y97638D02*
Y104240D01*
X94839Y96500D02*
X103158D01*
X93701Y97638D02*
X94839Y96500D01*
X95291Y104240D02*
X98032Y101500D01*
X103158D01*
X49739Y21294D02*
X50000Y21555D01*
X49000Y11000D02*
Y20031D01*
X49739Y20771D01*
Y21294D01*
X69000Y11000D02*
Y12791D01*
X73476Y126330D02*
Y128586D01*
X74000Y129110D01*
X60705Y113559D02*
X73476Y126330D01*
X84500Y120520D02*
Y128610D01*
X59240Y110713D02*
Y112287D01*
X60512Y113559D01*
X60705D01*
X99000Y129110D02*
X99524Y128586D01*
Y126255D02*
X108500Y117280D01*
X99524Y126255D02*
Y128586D01*
X127953Y80610D02*
X128543Y81201D01*
X126870Y66634D02*
X127953Y67716D01*
Y80610D01*
X134465Y75100D02*
X134769D01*
X124714Y40831D02*
X125124Y41240D01*
X123299Y40831D02*
X124714D01*
X125124Y41240D02*
X125492D01*
X122421Y39953D02*
X123299Y40831D01*
X59441Y65240D02*
X62900Y68700D01*
X63269Y68700D02*
X64904Y70335D01*
X62900Y68700D02*
X63269D01*
X64904Y70335D02*
X68510D01*
X70000Y53335D02*
Y55500D01*
X58240Y48000D02*
X64665D01*
X70000Y53335D01*
X58240Y48000D02*
Y49181D01*
X134769Y75100D02*
X135310Y75642D01*
X118110Y76378D02*
X119882D01*
X116142Y78347D02*
X118110Y76378D01*
X116142Y78347D02*
Y93012D01*
X121646Y66634D02*
X126870D01*
X122941Y72335D02*
Y73319D01*
X119882Y76378D02*
X122941Y73319D01*
X138583Y90650D02*
Y98032D01*
X133193Y85260D02*
X138583Y90650D01*
X124335Y85260D02*
X133193D01*
X121063Y81201D02*
Y81988D01*
X124335Y85260D01*
X117717Y27362D02*
X119193Y25886D01*
X112421Y36102D02*
Y38181D01*
X118012Y30512D02*
X129823D01*
X112421Y36102D02*
X118012Y30512D01*
X129823D02*
X132677Y27657D01*
X129232Y34646D02*
X129331D01*
X132874Y38189D02*
Y38976D01*
X129331Y34646D02*
X132874Y38189D01*
X127461Y32874D02*
X129232Y34646D01*
X117421Y36409D02*
X120957Y32874D01*
X127461D01*
X140354Y38976D02*
Y39764D01*
X132677Y26476D02*
Y27657D01*
X122421Y38181D02*
Y39953D01*
X87421Y55295D02*
X91929Y50787D01*
X87421Y55295D02*
Y60638D01*
X92421Y55512D02*
Y60638D01*
X95177Y20177D02*
X95276Y20276D01*
Y30020D01*
X92421Y32874D02*
Y38181D01*
Y32874D02*
X95276Y30020D01*
X69760Y79819D02*
Y81000D01*
X115453Y93701D02*
X116142Y93012D01*
X122941Y72335D02*
X124213Y71063D01*
X104823Y81102D02*
Y82284D01*
X107382Y60677D02*
X107421Y60638D01*
X107382Y60677D02*
Y65354D01*
X109153Y67126D01*
Y76772D01*
X112303Y79921D02*
Y81102D01*
X109153Y76772D02*
X112303Y79921D01*
X117421Y60638D02*
Y62409D01*
X121646Y66634D01*
X129100Y116000D02*
Y129010D01*
X120311Y116000D02*
X129100D01*
X112421Y60638D02*
X117421D01*
X132677Y26476D02*
X132776Y26378D01*
X119193Y25886D02*
X122835D01*
X84500Y23000D02*
Y34890D01*
X79740Y39650D02*
Y43500D01*
Y39650D02*
X84500Y34890D01*
X122400Y105100D02*
X122769D01*
X124473Y103396D01*
X124568D01*
X126464Y101500D01*
X77740Y97750D02*
Y98537D01*
X68882Y110482D02*
X70000Y111600D01*
X69760Y111500D02*
X69860Y111600D01*
X70000D01*
X73800Y92500D02*
Y115000D01*
X79000Y120200D01*
Y129110D01*
X42709Y93600D02*
X54700D01*
X63300Y85000D01*
X39740Y96569D02*
Y97750D01*
Y96569D02*
X42709Y93600D01*
X28300Y78300D02*
X31000Y75600D01*
X32260Y82819D02*
Y85181D01*
Y82819D02*
X35239Y79839D01*
Y79161D02*
Y79839D01*
Y79161D02*
X35500Y78900D01*
X59244Y57760D02*
X59441D01*
X40659Y81941D02*
X47900Y74700D01*
Y74400D02*
Y74700D01*
X39740Y82819D02*
Y84000D01*
X40618Y84878D02*
Y86133D01*
X42185Y87700D02*
X44200D01*
X39740Y84000D02*
X40618Y84878D01*
Y86133D02*
X42185Y87700D01*
X39740Y82819D02*
X40618Y81941D01*
X40659D01*
X32260Y96569D02*
Y97750D01*
X28300Y92609D02*
X32260Y96569D01*
X28300Y78300D02*
Y92609D01*
X140480Y77406D02*
X143300Y80226D01*
X94000Y129110D02*
Y130193D01*
X99807Y136000D01*
X135400D01*
X51093Y81000D02*
Y88007D01*
X32260Y98931D02*
X36100Y102771D01*
X32260Y97750D02*
Y98931D01*
X36100Y102771D02*
Y115928D01*
X24000Y128028D02*
X36100Y115928D01*
X24000Y128028D02*
Y129110D01*
X126464Y101500D02*
X127842D01*
X79012Y99809D02*
X83443Y104240D01*
X79012Y99809D02*
X79012D01*
X77740Y98537D02*
X79012Y99809D01*
X73800Y92500D02*
X75700Y90600D01*
X49000Y96900D02*
X49200Y96700D01*
X49000Y107953D02*
X51760Y110713D01*
X49000Y96900D02*
Y107953D01*
X51760Y110713D02*
Y111500D01*
X139200Y77406D02*
X140480D01*
X137436Y75642D02*
X139200Y77406D01*
X135310Y75642D02*
X137436D01*
X59342Y65240D02*
X59441D01*
X58574Y81000D02*
X69760D01*
X129000Y129110D02*
X129100Y129010D01*
X108500Y116000D02*
Y117280D01*
X84000Y129110D02*
X84500Y128610D01*
X39740Y111500D02*
X51760D01*
X34600Y66400D02*
Y66729D01*
X32260Y69069D02*
Y70250D01*
Y69069D02*
X34600Y66729D01*
X79438Y51238D02*
Y54938D01*
X76100Y47900D02*
X79438Y51238D01*
X76100Y37021D02*
Y47900D01*
X79438Y54938D02*
X80000Y55500D01*
X73138Y34059D02*
X73138D01*
X76100Y37021D01*
X72260Y33181D02*
X73138Y34059D01*
X72260Y32000D02*
Y33181D01*
X29221Y49579D02*
X32020D01*
X29200Y49600D02*
X29221Y49579D01*
X32020D02*
X36000Y45598D01*
X32020Y49579D02*
Y56000D01*
X36000Y45500D02*
Y45598D01*
X50760Y37642D02*
Y48000D01*
X50079Y36961D02*
X50760Y37642D01*
X50025Y36961D02*
X50079D01*
X76000Y27079D02*
X79740Y30819D01*
X76000Y17500D02*
Y27079D01*
X79740Y30819D02*
Y32000D01*
X76000Y17500D02*
X79000Y14500D01*
X79000Y11000D02*
X79000Y11000D01*
Y14500D01*
X93476Y11524D02*
Y14024D01*
Y11524D02*
X94000Y11000D01*
X84500Y23000D02*
X93476Y14024D01*
X88826Y11174D02*
X89000Y11000D01*
X88826Y11174D02*
Y14674D01*
X79740Y20500D02*
X83000D01*
X88826Y14674D01*
X50025Y25961D02*
Y36961D01*
X39500Y56000D02*
X40772Y54728D01*
X43475Y25922D02*
Y31824D01*
X39740Y35559D02*
X43475Y31824D01*
X34000Y17235D02*
X42687Y25922D01*
X43475D01*
X34000Y11000D02*
Y17235D01*
D17*
X77240Y111500D02*
D03*
X69760D02*
D03*
X99311Y25295D02*
D03*
X91831D02*
D03*
X72260Y20500D02*
D03*
X79740D02*
D03*
X132677Y26476D02*
D03*
X140157D02*
D03*
X32260Y70250D02*
D03*
X39740D02*
D03*
Y84000D02*
D03*
X32260D02*
D03*
Y97750D02*
D03*
X39740D02*
D03*
Y111500D02*
D03*
X32260D02*
D03*
X72260Y43500D02*
D03*
X79740D02*
D03*
X79740Y32000D02*
D03*
X72260D02*
D03*
X58240Y48000D02*
D03*
X50760D02*
D03*
X58574Y81000D02*
D03*
X51093D02*
D03*
X94393D02*
D03*
X86913D02*
D03*
X76483D02*
D03*
X69003D02*
D03*
X104823Y81102D02*
D03*
X112303D02*
D03*
D18*
X105309Y71003D02*
D03*
X107885Y25808D02*
D03*
X90360Y70926D02*
D03*
X43475Y25922D02*
D03*
X28525Y25845D02*
D03*
X64975Y26039D02*
D03*
X50025Y25961D02*
D03*
X64975Y37039D02*
D03*
X50025Y36961D02*
D03*
X122835Y25886D02*
D03*
X83459Y70413D02*
D03*
X68510Y70335D02*
D03*
D19*
X89020Y111500D02*
D03*
X96500D02*
D03*
X132579Y38976D02*
D03*
X140059D02*
D03*
X121063Y81201D02*
D03*
X128543D02*
D03*
X77740Y97750D02*
D03*
X70260D02*
D03*
X51760Y111500D02*
D03*
X59240D02*
D03*
X140256Y52658D02*
D03*
X132776D02*
D03*
X116732Y71063D02*
D03*
X124213D02*
D03*
X39500Y56000D02*
D03*
X32020D02*
D03*
X86221Y97638D02*
D03*
X93701D02*
D03*
D20*
X139200Y77406D02*
D03*
Y65595D02*
D03*
D21*
X32260Y35658D02*
D03*
D22*
X127842Y106500D02*
D03*
Y101500D02*
D03*
Y96500D02*
D03*
Y91500D02*
D03*
X103158Y106500D02*
D03*
Y101500D02*
D03*
Y96500D02*
D03*
D23*
X39740Y35658D02*
D03*
X36000Y45500D02*
D03*
D26*
X103158Y91500D02*
D03*
D44*
X102663Y30242D02*
X106667Y26239D01*
X102663Y30242D02*
Y32278D01*
X102461Y32480D02*
X102663Y32278D01*
X106667Y26239D02*
X107454D01*
X107885Y25808D01*
X82737Y64295D02*
X84977Y66535D01*
X95177D01*
X99645Y71003D01*
X82480Y64295D02*
X82737D01*
X99645Y71003D02*
X105309D01*
D45*
X95276Y120866D02*
X101900Y114242D01*
Y107129D02*
Y114242D01*
X6004Y87697D02*
X14461D01*
X14469Y87705D01*
X10531Y4921D02*
X26969D01*
X8563Y6890D02*
X10531Y4921D01*
X8563Y6890D02*
Y52928D01*
X26969Y4921D02*
X29000Y6953D01*
Y11000D01*
X9735Y54100D02*
X10500D01*
X8563Y52928D02*
X9735Y54100D01*
X10500D02*
X14500Y58100D01*
X102421Y58866D02*
X108236Y53051D01*
X102421Y58866D02*
Y60638D01*
X108236Y53051D02*
X117028D01*
X127911Y96569D02*
X131871D01*
X132402Y97100D02*
X132500D01*
X127842Y96500D02*
X127911Y96569D01*
X131871D02*
X132402Y97100D01*
X39700Y64500D02*
X39720Y64520D01*
X37600Y62400D02*
X39700Y64500D01*
X101900Y107129D02*
X102529Y106500D01*
X103158D01*
X39720Y64520D02*
Y70230D01*
X24300Y62400D02*
X37600D01*
X39720Y70230D02*
X39740Y70250D01*
X21600Y48700D02*
X24300Y51400D01*
Y62400D01*
X21600Y21900D02*
Y48700D01*
X24000Y11000D02*
Y19500D01*
X21600Y21900D02*
X24000Y19500D01*
D46*
X87421Y43811D02*
X88886Y45276D01*
X95866D02*
X97421Y43720D01*
X88886Y45276D02*
X95866D01*
X87421Y30886D02*
Y43811D01*
X97421Y38181D02*
Y43720D01*
X87421Y30886D02*
X91831Y26476D01*
Y25295D02*
Y26476D01*
D47*
X122421Y54744D02*
X122638Y54528D01*
X122421Y54744D02*
Y60638D01*
X23800Y111500D02*
X32260D01*
X14000Y121300D02*
Y129110D01*
Y121300D02*
X23800Y111500D01*
X30000Y106200D02*
Y108059D01*
X32260Y110319D02*
Y111500D01*
X30000Y108059D02*
X32260Y110319D01*
D48*
X39000Y11000D02*
D03*
X59000Y129110D02*
D03*
X24000Y11000D02*
D03*
X19000D02*
D03*
X29000D02*
D03*
X34000D02*
D03*
X44000D02*
D03*
X49000D02*
D03*
X54000D02*
D03*
X59000D02*
D03*
X64000D02*
D03*
X69000D02*
D03*
X74000D02*
D03*
X79000D02*
D03*
X84000D02*
D03*
X89000D02*
D03*
X94000D02*
D03*
X99000D02*
D03*
X104000D02*
D03*
X109000D02*
D03*
X114000D02*
D03*
X119000D02*
D03*
X124000D02*
D03*
X129000D02*
D03*
X124000Y129110D02*
D03*
X119000D02*
D03*
X114000D02*
D03*
X109000D02*
D03*
X104000D02*
D03*
X99000D02*
D03*
X94000D02*
D03*
X89000D02*
D03*
X84000D02*
D03*
X79000D02*
D03*
X74000D02*
D03*
X69000D02*
D03*
X64000D02*
D03*
X54000D02*
D03*
X49000D02*
D03*
X44000D02*
D03*
X39000D02*
D03*
X34000D02*
D03*
X29000D02*
D03*
X24000D02*
D03*
X19000D02*
D03*
X14000D02*
D03*
D49*
Y11000D02*
D03*
X129000Y129110D02*
D03*
D50*
X70000Y55500D02*
D03*
X75000D02*
D03*
D51*
X80000D02*
D03*
D52*
X68442Y107459D02*
D03*
X129429Y52756D02*
D03*
X136713Y57382D02*
D03*
X102461Y32480D02*
D03*
X102657Y52165D02*
D03*
X110925Y32972D02*
D03*
X113705Y73425D02*
D03*
X99213Y30610D02*
D03*
X28445Y41634D02*
D03*
X69095Y42520D02*
D03*
X82480Y64295D02*
D03*
X65650Y20472D02*
D03*
X58268Y106004D02*
D03*
X77658Y103150D02*
D03*
X85538Y107434D02*
D03*
X100492Y55413D02*
D03*
X71933Y74252D02*
D03*
X71398Y89900D02*
D03*
X97736Y81102D02*
D03*
X88386Y104331D02*
D03*
X53642Y105709D02*
D03*
X64764Y99902D02*
D03*
X50000Y21555D02*
D03*
X130905Y75197D02*
D03*
X134465Y75100D02*
D03*
X6004Y87697D02*
D03*
X125492Y41240D02*
D03*
X54626Y122244D02*
D03*
X95276Y120866D02*
D03*
X72146Y117815D02*
D03*
X109646Y100492D02*
D03*
X130807Y63287D02*
D03*
X138583Y98032D02*
D03*
X117717Y27362D02*
D03*
X117028Y53051D02*
D03*
X91929Y50787D02*
D03*
X92421Y55512D02*
D03*
X95177Y20177D02*
D03*
X115453Y93701D02*
D03*
X122638Y54528D02*
D03*
X89272Y28543D02*
D03*
X122400Y105100D02*
D03*
X39700Y64500D02*
D03*
X63300Y85000D02*
D03*
X30000Y106200D02*
D03*
X35500Y78900D02*
D03*
X47900Y74400D02*
D03*
X44200Y87700D02*
D03*
X81000Y81000D02*
D03*
X97400Y89781D02*
D03*
X79800Y90700D02*
D03*
X75700Y90600D02*
D03*
X49200Y96700D02*
D03*
X132500Y97100D02*
D03*
X62900Y68700D02*
D03*
X18300Y43300D02*
D03*
X50600Y53600D02*
D03*
X34600Y66400D02*
D03*
X24300Y62400D02*
D03*
X29200Y49600D02*
D03*
X16000Y36000D02*
D03*
D53*
X140256Y31693D02*
D03*
X142421Y59646D02*
D03*
X64075Y31004D02*
D03*
D54*
X87421Y60638D02*
D03*
X92421D02*
D03*
X97421D02*
D03*
X102421D02*
D03*
X107421D02*
D03*
X112421D02*
D03*
X117421D02*
D03*
X122421D02*
D03*
X87421Y38181D02*
D03*
X92421D02*
D03*
X97421D02*
D03*
X102421D02*
D03*
X107421D02*
D03*
X112421D02*
D03*
X117421D02*
D03*
D55*
X122421D02*
D03*
D56*
X120311Y116000D02*
D03*
X108500D02*
D03*
D57*
X59342Y65240D02*
D03*
X49500Y61500D02*
D03*
D58*
X59342Y57760D02*
D03*
D59*
X13386Y87705D02*
D03*
X13417Y58100D02*
D03*
M02*
