G04*
G04 #@! TF.GenerationSoftware,Altium Limited,Altium Designer,23.0.1 (38)*
G04*
G04 Layer_Color=16711935*
%FSLAX25Y25*%
%MOIN*%
G70*
G04*
G04 #@! TF.SameCoordinates,382624F3-9DB8-427B-A981-9488CFEE9D80*
G04*
G04*
G04 #@! TF.FilePolarity,Negative*
G04*
G01*
G75*
%ADD29R,0.03556X0.05918*%
%ADD30R,0.04737X0.03162*%
%ADD31R,0.04343X0.05918*%
%ADD32R,0.07887X0.05328*%
%ADD33R,0.04343X0.04540*%
%ADD34O,0.05918X0.03162*%
%ADD35R,0.04343X0.04540*%
%ADD38R,0.05918X0.03162*%
%ADD39O,0.04540X0.06706*%
%ADD40R,0.04540X0.06706*%
%ADD41O,0.04343X0.08674*%
%ADD42O,0.04343X0.08674*%
%ADD43C,0.03162*%
%ADD60O,0.03556X0.07099*%
%ADD61R,0.03556X0.07099*%
%ADD62R,0.05328X0.07887*%
%ADD63R,0.04540X0.04343*%
%ADD64R,0.04540X0.04343*%
%ADD65R,0.11824X0.10800*%
D29*
X77240Y111500D02*
D03*
X69760D02*
D03*
X99311Y25295D02*
D03*
X91831D02*
D03*
X72260Y20500D02*
D03*
X79740D02*
D03*
X132677Y26476D02*
D03*
X140157D02*
D03*
X32260Y70250D02*
D03*
X39740D02*
D03*
Y84000D02*
D03*
X32260D02*
D03*
Y97750D02*
D03*
X39740D02*
D03*
Y111500D02*
D03*
X32260D02*
D03*
X72260Y43500D02*
D03*
X79740D02*
D03*
X79740Y32000D02*
D03*
X72260D02*
D03*
X58240Y48000D02*
D03*
X50760D02*
D03*
X58574Y81000D02*
D03*
X51093D02*
D03*
X94393D02*
D03*
X86913D02*
D03*
X76483D02*
D03*
X69003D02*
D03*
X104823Y81102D02*
D03*
X112303D02*
D03*
D30*
X105309Y71003D02*
D03*
X107885Y25808D02*
D03*
X90360Y70926D02*
D03*
X43475Y25922D02*
D03*
X28525Y25845D02*
D03*
X64975Y26039D02*
D03*
X50025Y25961D02*
D03*
X64975Y37039D02*
D03*
X50025Y36961D02*
D03*
X122835Y25886D02*
D03*
X83459Y70413D02*
D03*
X68510Y70335D02*
D03*
D31*
X89020Y111500D02*
D03*
X96500D02*
D03*
X132579Y38976D02*
D03*
X140059D02*
D03*
X121063Y81201D02*
D03*
X128543D02*
D03*
X77740Y97750D02*
D03*
X70260D02*
D03*
X51760Y111500D02*
D03*
X59240D02*
D03*
X140256Y52658D02*
D03*
X132776D02*
D03*
X116732Y71063D02*
D03*
X124213D02*
D03*
X39500Y56000D02*
D03*
X32020D02*
D03*
X86221Y97638D02*
D03*
X93701D02*
D03*
D32*
X139200Y77406D02*
D03*
Y65595D02*
D03*
D33*
X32260Y35658D02*
D03*
D34*
X127842Y106500D02*
D03*
Y101500D02*
D03*
Y96500D02*
D03*
Y91500D02*
D03*
X103158Y106500D02*
D03*
Y101500D02*
D03*
Y96500D02*
D03*
D35*
X39740Y35658D02*
D03*
X36000Y45500D02*
D03*
D38*
X103158Y91500D02*
D03*
D39*
X39000Y11000D02*
D03*
X59000Y129110D02*
D03*
X24000Y11000D02*
D03*
X19000D02*
D03*
X29000D02*
D03*
X34000D02*
D03*
X44000D02*
D03*
X49000D02*
D03*
X54000D02*
D03*
X59000D02*
D03*
X64000D02*
D03*
X69000D02*
D03*
X74000D02*
D03*
X79000D02*
D03*
X84000D02*
D03*
X89000D02*
D03*
X94000D02*
D03*
X99000D02*
D03*
X104000D02*
D03*
X109000D02*
D03*
X114000D02*
D03*
X119000D02*
D03*
X124000D02*
D03*
X129000D02*
D03*
X124000Y129110D02*
D03*
X119000D02*
D03*
X114000D02*
D03*
X109000D02*
D03*
X104000D02*
D03*
X99000D02*
D03*
X94000D02*
D03*
X89000D02*
D03*
X84000D02*
D03*
X79000D02*
D03*
X74000D02*
D03*
X69000D02*
D03*
X64000D02*
D03*
X54000D02*
D03*
X49000D02*
D03*
X44000D02*
D03*
X39000D02*
D03*
X34000D02*
D03*
X29000D02*
D03*
X24000D02*
D03*
X19000D02*
D03*
X14000D02*
D03*
D40*
Y11000D02*
D03*
X129000Y129110D02*
D03*
D41*
X70000Y55500D02*
D03*
X75000D02*
D03*
D42*
X80000D02*
D03*
D43*
X140256Y31693D02*
D03*
X142421Y59646D02*
D03*
X64075Y31004D02*
D03*
D60*
X87421Y60638D02*
D03*
X92421D02*
D03*
X97421D02*
D03*
X102421D02*
D03*
X107421D02*
D03*
X112421D02*
D03*
X117421D02*
D03*
X122421D02*
D03*
X87421Y38181D02*
D03*
X92421D02*
D03*
X97421D02*
D03*
X102421D02*
D03*
X107421D02*
D03*
X112421D02*
D03*
X117421D02*
D03*
D61*
X122421D02*
D03*
D62*
X120311Y116000D02*
D03*
X108500D02*
D03*
D63*
X59342Y65240D02*
D03*
X49500Y61500D02*
D03*
D64*
X59342Y57760D02*
D03*
D65*
X13386Y87705D02*
D03*
X13417Y58100D02*
D03*
M02*
