G04*
G04 #@! TF.GenerationSoftware,Altium Limited,Altium Designer,23.0.1 (38)*
G04*
G04 Layer_Color=8388736*
%FSLAX25Y25*%
%MOIN*%
G70*
G04*
G04 #@! TF.SameCoordinates,382624F3-9DB8-427B-A981-9488CFEE9D80*
G04*
G04*
G04 #@! TF.FilePolarity,Negative*
G04*
G01*
G75*
%ADD27R,0.03162X0.05918*%
%ADD28O,0.03162X0.05918*%
%ADD29R,0.03556X0.05918*%
%ADD30R,0.04737X0.03162*%
%ADD31R,0.04343X0.05918*%
%ADD32R,0.07887X0.05328*%
%ADD33R,0.04343X0.04540*%
%ADD34O,0.05918X0.03162*%
%ADD35R,0.04343X0.04540*%
%ADD36R,0.03162X0.04737*%
%ADD37R,0.05918X0.04343*%
%ADD38R,0.05918X0.03162*%
%ADD39O,0.04540X0.06706*%
%ADD40R,0.04540X0.06706*%
%ADD41O,0.04343X0.08674*%
%ADD42O,0.04343X0.08674*%
%ADD43C,0.03162*%
D27*
X126000Y80756D02*
D03*
Y46764D02*
D03*
X112500Y93842D02*
D03*
X83000Y94842D02*
D03*
D28*
X131000Y80756D02*
D03*
X136000D02*
D03*
X141000D02*
D03*
X126000Y105441D02*
D03*
X131000D02*
D03*
X136000D02*
D03*
X141000D02*
D03*
Y71448D02*
D03*
X136000D02*
D03*
X131000D02*
D03*
X126000D02*
D03*
X141000Y46764D02*
D03*
X136000D02*
D03*
X131000D02*
D03*
X107500Y93842D02*
D03*
X102500D02*
D03*
X97500D02*
D03*
X112500Y69158D02*
D03*
X107500D02*
D03*
X102500D02*
D03*
X97500D02*
D03*
X78000Y94842D02*
D03*
X73000D02*
D03*
X68000D02*
D03*
X83000Y70158D02*
D03*
X78000D02*
D03*
X73000D02*
D03*
X68000D02*
D03*
D29*
X79527Y19882D02*
D03*
X72047D02*
D03*
X50760Y48500D02*
D03*
X95079Y103642D02*
D03*
X40240Y48500D02*
D03*
X32760D02*
D03*
X58240D02*
D03*
X105760Y26500D02*
D03*
X113240D02*
D03*
X102559Y103642D02*
D03*
D30*
X128625Y36639D02*
D03*
X143575Y36561D02*
D03*
X83475Y103561D02*
D03*
X68525Y103639D02*
D03*
X103725Y36539D02*
D03*
X128625Y26339D02*
D03*
X143575Y26261D02*
D03*
X48975Y114425D02*
D03*
X34025Y114503D02*
D03*
X118675Y36461D02*
D03*
X103725Y45939D02*
D03*
X118675Y45861D02*
D03*
X83475Y114425D02*
D03*
X68525Y114503D02*
D03*
D31*
X106398Y56201D02*
D03*
X113878D02*
D03*
X114820Y113200D02*
D03*
X122300D02*
D03*
X103059Y113500D02*
D03*
X95579D02*
D03*
D32*
X15000Y91594D02*
D03*
X90500Y43905D02*
D03*
Y32094D02*
D03*
X15000Y103405D02*
D03*
D33*
X13000Y39000D02*
D03*
X30782Y38500D02*
D03*
X58793Y28657D02*
D03*
X76575Y28543D02*
D03*
D34*
X29158Y61500D02*
D03*
Y71500D02*
D03*
Y66500D02*
D03*
X53842Y76500D02*
D03*
Y71500D02*
D03*
Y66500D02*
D03*
Y61500D02*
D03*
X54842Y91500D02*
D03*
Y96500D02*
D03*
Y101500D02*
D03*
X30158Y86500D02*
D03*
Y91500D02*
D03*
Y96500D02*
D03*
Y101500D02*
D03*
D35*
X20480Y39000D02*
D03*
X16740Y29158D02*
D03*
X34522Y28657D02*
D03*
X38262Y38500D02*
D03*
X51313Y28657D02*
D03*
X55053Y38500D02*
D03*
X72835Y38386D02*
D03*
X69095Y28543D02*
D03*
D36*
X14961Y48025D02*
D03*
X15039Y62975D02*
D03*
D37*
X15500Y80240D02*
D03*
Y72760D02*
D03*
D38*
X29158Y76500D02*
D03*
X54842Y86500D02*
D03*
D39*
X39000Y11000D02*
D03*
X59000Y129110D02*
D03*
X24000Y11000D02*
D03*
X19000D02*
D03*
X29000D02*
D03*
X34000D02*
D03*
X44000D02*
D03*
X49000D02*
D03*
X54000D02*
D03*
X59000D02*
D03*
X64000D02*
D03*
X69000D02*
D03*
X74000D02*
D03*
X79000D02*
D03*
X84000D02*
D03*
X89000D02*
D03*
X94000D02*
D03*
X99000D02*
D03*
X104000D02*
D03*
X109000D02*
D03*
X114000D02*
D03*
X119000D02*
D03*
X124000D02*
D03*
X129000D02*
D03*
X124000Y129110D02*
D03*
X119000D02*
D03*
X114000D02*
D03*
X109000D02*
D03*
X104000D02*
D03*
X99000D02*
D03*
X94000D02*
D03*
X89000D02*
D03*
X84000D02*
D03*
X79000D02*
D03*
X74000D02*
D03*
X69000D02*
D03*
X64000D02*
D03*
X54000D02*
D03*
X49000D02*
D03*
X44000D02*
D03*
X39000D02*
D03*
X34000D02*
D03*
X29000D02*
D03*
X24000D02*
D03*
X19000D02*
D03*
X14000D02*
D03*
D40*
Y11000D02*
D03*
X129000Y129110D02*
D03*
D41*
X70000Y55500D02*
D03*
X75000D02*
D03*
D42*
X80000D02*
D03*
D43*
X140256Y31693D02*
D03*
X142421Y59646D02*
D03*
X64075Y31004D02*
D03*
M02*
