G04*
G04 #@! TF.GenerationSoftware,Altium Limited,Altium Designer,23.0.1 (38)*
G04*
G04 Layer_Color=32896*
%FSLAX25Y25*%
%MOIN*%
G70*
G04*
G04 #@! TF.SameCoordinates,382624F3-9DB8-427B-A981-9488CFEE9D80*
G04*
G04*
G04 #@! TF.FilePolarity,Positive*
G04*
G01*
G75*
%ADD10C,0.00787*%
%ADD11C,0.01000*%
%ADD12C,0.00984*%
%ADD13C,0.00500*%
%ADD14C,0.00591*%
%ADD66C,0.02362*%
D10*
X117200Y89000D02*
G03*
X114700Y89000I-1250J0D01*
G01*
X99760Y107500D02*
Y115500D01*
X85760D02*
X99760D01*
X85760Y107500D02*
Y115500D01*
Y107500D02*
X99760D01*
X67000D02*
X80000D01*
Y115500D01*
X67000D02*
X80000D01*
X67000Y107500D02*
Y115500D01*
X108607Y89000D02*
Y109000D01*
X123293D01*
Y89000D02*
Y109000D01*
X117200Y89000D02*
X123293D01*
X108607D02*
X114700D01*
X102071Y21295D02*
Y29295D01*
X89071Y21295D02*
X102071D01*
X89071D02*
Y29295D01*
X102071D01*
X85236Y43110D02*
Y55709D01*
X124606Y43110D02*
Y55709D01*
X85236D02*
X124606D01*
X85236Y43110D02*
X124606D01*
X69500Y16500D02*
Y24500D01*
X82500D01*
Y16500D02*
Y24500D01*
X69500Y16500D02*
X82500D01*
X129319Y42976D02*
X143319D01*
Y34976D02*
Y42976D01*
X129319Y34976D02*
X143319D01*
X129319D02*
Y42976D01*
X129917Y22476D02*
Y30476D01*
X142917D01*
Y22476D02*
Y30476D01*
X129917Y22476D02*
X142917D01*
X117803Y85201D02*
X131803D01*
Y77201D02*
Y85201D01*
X117803Y77201D02*
X131803D01*
X117803D02*
Y85201D01*
X67000Y93750D02*
X81000D01*
X67000D02*
Y101750D01*
X81000D01*
Y93750D02*
Y101750D01*
X48500Y115500D02*
X62500D01*
Y107500D02*
Y115500D01*
X48500Y107500D02*
X62500D01*
X48500D02*
Y115500D01*
X29500Y66250D02*
Y74250D01*
X42500D01*
Y66250D02*
Y74250D01*
X29500Y66250D02*
X42500D01*
X29500Y80000D02*
X42500D01*
Y88000D01*
X29500D02*
X42500D01*
X29500Y80000D02*
Y88000D01*
Y93750D02*
Y101750D01*
X42500D01*
Y93750D02*
Y101750D01*
X29500Y93750D02*
X42500D01*
X29500Y107500D02*
X42500D01*
Y115500D01*
X29500D02*
X42500D01*
X29500Y107500D02*
Y115500D01*
X129516Y48658D02*
Y56657D01*
Y48658D02*
X143516D01*
Y56657D01*
X129516D02*
X143516D01*
X69500Y39500D02*
Y47500D01*
X82500D01*
Y39500D02*
Y47500D01*
X69500Y39500D02*
X82500D01*
Y28000D02*
Y36000D01*
X69500Y28000D02*
X82500D01*
X69500D02*
Y36000D01*
X82500D01*
X127472Y67063D02*
Y75063D01*
X113472D02*
X127472D01*
X113472Y67063D02*
Y75063D01*
Y67063D02*
X127472D01*
X49500Y56382D02*
X49500Y58153D01*
X49500Y66618D02*
X49500Y64846D01*
X49500Y66618D02*
X55898D01*
X49500Y56382D02*
X55898D01*
X48000Y44000D02*
X61000D01*
Y52000D01*
X48000D02*
X61000D01*
X48000Y44000D02*
Y52000D01*
X48333Y77000D02*
X61333D01*
Y85000D01*
X48333D02*
X61333D01*
X48333Y77000D02*
Y85000D01*
X84153Y77000D02*
X97153D01*
Y85000D01*
X84153D02*
X97153D01*
X84153Y77000D02*
Y85000D01*
X66243Y77000D02*
X79243D01*
Y85000D01*
X66243D02*
X79243D01*
X66243Y77000D02*
Y85000D01*
X102063Y85102D02*
X115063D01*
X102063Y77102D02*
Y85102D01*
Y77102D02*
X115063D01*
Y85102D01*
X30882Y45500D02*
X32653Y45500D01*
X39346D02*
X41118Y45500D01*
Y39102D02*
Y45500D01*
X30882Y39102D02*
Y45500D01*
X28760Y52000D02*
Y60000D01*
Y52000D02*
X42760D01*
Y60000D01*
X28760D02*
X42760D01*
X96961Y93638D02*
Y101638D01*
X82961D02*
X96961D01*
X82961Y93638D02*
Y101638D01*
Y93638D02*
X96961D01*
D11*
X110557Y91108D02*
G03*
X110557Y91108I-344J0D01*
G01*
X8774Y75947D02*
G03*
X11475Y73246I2701J0D01*
G01*
X15977D02*
G03*
X18528Y75797I0J2551D01*
G01*
X23041Y51420D02*
Y94439D01*
X3805D02*
X23041D01*
X3805Y51420D02*
Y94439D01*
Y51420D02*
X23041D01*
X13526Y73371D02*
Y78871D01*
X13551Y66335D02*
Y70970D01*
X11475Y73246D02*
X15977D01*
X8624Y70995D02*
X18711D01*
D12*
X126457Y38681D02*
G03*
X126457Y38681I-492J0D01*
G01*
X59835Y69177D02*
G03*
X59835Y69177I-492J0D01*
G01*
X44169Y35658D02*
G03*
X44169Y35658I-492J0D01*
G01*
D13*
X104934Y73059D02*
Y74106D01*
X104895Y74145D02*
X104934Y74106D01*
X90429Y74145D02*
X104895D01*
X90429Y72981D02*
Y74145D01*
X104895Y67901D02*
Y68870D01*
X90429Y67901D02*
X104895D01*
X90391Y67940D02*
Y68870D01*
X93818Y68095D02*
Y73796D01*
X94710Y68056D02*
Y74145D01*
X28901Y22742D02*
Y23789D01*
Y22742D02*
X28940Y22704D01*
X43405D01*
Y23867D01*
X28940Y27978D02*
Y28947D01*
X43405D01*
X43444Y27978D02*
Y28908D01*
X40017Y23052D02*
Y28753D01*
X39125Y22704D02*
Y28792D01*
X50401Y22859D02*
Y23906D01*
Y22859D02*
X50440Y22820D01*
X64905D01*
Y23983D01*
X50440Y28094D02*
Y29063D01*
X64905D01*
X64944Y28094D02*
Y29025D01*
X61517Y23169D02*
Y28870D01*
X60624Y22820D02*
Y28909D01*
X54375Y34091D02*
Y40180D01*
X53483Y34130D02*
Y39831D01*
X50056Y33975D02*
Y34906D01*
X50095Y33937D02*
X64560D01*
Y34906D01*
X50095Y39017D02*
Y40180D01*
X64560D01*
X64599Y40141D01*
Y39094D02*
Y40141D01*
X118484Y22667D02*
Y28756D01*
X119377Y23016D02*
Y28717D01*
X122804Y27941D02*
Y28872D01*
X108300Y28910D02*
X122765D01*
X108300Y27941D02*
Y28910D01*
X122765Y22667D02*
Y23830D01*
X108300Y22667D02*
X122765D01*
X108261Y22706D02*
X108300Y22667D01*
X108261Y22706D02*
Y23753D01*
X72860Y67465D02*
Y73554D01*
X71968Y67504D02*
Y73205D01*
X68540Y67349D02*
Y68280D01*
X68579Y67311D02*
X83045D01*
Y68280D01*
X68579Y72391D02*
Y73554D01*
X83045D01*
X83083Y73515D01*
Y72468D02*
Y73515D01*
D14*
X144000Y62000D02*
Y81516D01*
X134596D02*
X134700Y62100D01*
X134600Y80700D02*
X144000D01*
X134700Y62100D02*
X144000Y62000D01*
X134596Y81516D02*
X144000D01*
X104905Y111200D02*
X124421D01*
X105006Y120500D02*
X124421Y120604D01*
X123606Y111200D02*
Y120600D01*
X104905Y111200D02*
X105006Y120500D01*
X124421Y111200D02*
Y120604D01*
D66*
X121850Y47047D02*
G03*
X121850Y47047I-1181J0D01*
G01*
M02*
