G04*
G04 #@! TF.GenerationSoftware,Altium Limited,Altium Designer,23.0.1 (38)*
G04*
G04 Layer_Color=255*
%FSLAX25Y25*%
%MOIN*%
G70*
G04*
G04 #@! TF.SameCoordinates,382624F3-9DB8-427B-A981-9488CFEE9D80*
G04*
G04*
G04 #@! TF.FilePolarity,Positive*
G04*
G01*
G75*
%ADD15R,0.02362X0.05118*%
%ADD16O,0.02362X0.05118*%
%ADD17R,0.02756X0.05118*%
%ADD18R,0.03937X0.02362*%
%ADD19R,0.03543X0.05118*%
%ADD20R,0.07087X0.04528*%
%ADD21R,0.03543X0.03740*%
%ADD22O,0.05118X0.02362*%
%ADD23R,0.03543X0.03740*%
%ADD24R,0.02362X0.03937*%
%ADD25R,0.05118X0.03543*%
%ADD26R,0.05118X0.02362*%
%ADD48O,0.03740X0.05906*%
%ADD49R,0.03740X0.05906*%
%ADD50O,0.03543X0.07874*%
%ADD51O,0.03543X0.07874*%
D15*
X126000Y80756D02*
D03*
Y46764D02*
D03*
X112500Y93842D02*
D03*
X83000Y94842D02*
D03*
D16*
X131000Y80756D02*
D03*
X136000D02*
D03*
X141000D02*
D03*
X126000Y105441D02*
D03*
X131000D02*
D03*
X136000D02*
D03*
X141000D02*
D03*
Y71448D02*
D03*
X136000D02*
D03*
X131000D02*
D03*
X126000D02*
D03*
X141000Y46764D02*
D03*
X136000D02*
D03*
X131000D02*
D03*
X107500Y93842D02*
D03*
X102500D02*
D03*
X97500D02*
D03*
X112500Y69158D02*
D03*
X107500D02*
D03*
X102500D02*
D03*
X97500D02*
D03*
X78000Y94842D02*
D03*
X73000D02*
D03*
X68000D02*
D03*
X83000Y70158D02*
D03*
X78000D02*
D03*
X73000D02*
D03*
X68000D02*
D03*
D17*
X79527Y19882D02*
D03*
X72047D02*
D03*
X50760Y48500D02*
D03*
X95079Y103642D02*
D03*
X40240Y48500D02*
D03*
X32760D02*
D03*
X58240D02*
D03*
X105760Y26500D02*
D03*
X113240D02*
D03*
X102559Y103642D02*
D03*
D18*
X128625Y36639D02*
D03*
X143575Y36561D02*
D03*
X83475Y103561D02*
D03*
X68525Y103639D02*
D03*
X103725Y36539D02*
D03*
X128625Y26339D02*
D03*
X143575Y26261D02*
D03*
X48975Y114425D02*
D03*
X34025Y114503D02*
D03*
X118675Y36461D02*
D03*
X103725Y45939D02*
D03*
X118675Y45861D02*
D03*
X83475Y114425D02*
D03*
X68525Y114503D02*
D03*
D19*
X106398Y56201D02*
D03*
X113878D02*
D03*
X114820Y113200D02*
D03*
X122300D02*
D03*
X103059Y113500D02*
D03*
X95579D02*
D03*
D20*
X15000Y91594D02*
D03*
X90500Y43905D02*
D03*
Y32094D02*
D03*
X15000Y103405D02*
D03*
D21*
X13000Y39000D02*
D03*
X30782Y38500D02*
D03*
X58793Y28657D02*
D03*
X76575Y28543D02*
D03*
D22*
X29158Y61500D02*
D03*
Y71500D02*
D03*
Y66500D02*
D03*
X53842Y76500D02*
D03*
Y71500D02*
D03*
Y66500D02*
D03*
Y61500D02*
D03*
X54842Y91500D02*
D03*
Y96500D02*
D03*
Y101500D02*
D03*
X30158Y86500D02*
D03*
Y91500D02*
D03*
Y96500D02*
D03*
Y101500D02*
D03*
D23*
X20480Y39000D02*
D03*
X16740Y29158D02*
D03*
X34522Y28657D02*
D03*
X38262Y38500D02*
D03*
X51313Y28657D02*
D03*
X55053Y38500D02*
D03*
X72835Y38386D02*
D03*
X69095Y28543D02*
D03*
D24*
X14961Y48025D02*
D03*
X15039Y62975D02*
D03*
D25*
X15500Y80240D02*
D03*
Y72760D02*
D03*
D26*
X29158Y76500D02*
D03*
X54842Y86500D02*
D03*
D48*
X39000Y11000D02*
D03*
X59000Y129110D02*
D03*
X24000Y11000D02*
D03*
X19000D02*
D03*
X29000D02*
D03*
X34000D02*
D03*
X44000D02*
D03*
X49000D02*
D03*
X54000D02*
D03*
X59000D02*
D03*
X64000D02*
D03*
X69000D02*
D03*
X74000D02*
D03*
X79000D02*
D03*
X84000D02*
D03*
X89000D02*
D03*
X94000D02*
D03*
X99000D02*
D03*
X104000D02*
D03*
X109000D02*
D03*
X114000D02*
D03*
X119000D02*
D03*
X124000D02*
D03*
X129000D02*
D03*
X124000Y129110D02*
D03*
X119000D02*
D03*
X114000D02*
D03*
X109000D02*
D03*
X104000D02*
D03*
X99000D02*
D03*
X94000D02*
D03*
X89000D02*
D03*
X84000D02*
D03*
X79000D02*
D03*
X74000D02*
D03*
X69000D02*
D03*
X64000D02*
D03*
X54000D02*
D03*
X49000D02*
D03*
X44000D02*
D03*
X39000D02*
D03*
X34000D02*
D03*
X29000D02*
D03*
X24000D02*
D03*
X19000D02*
D03*
X14000D02*
D03*
D49*
Y11000D02*
D03*
X129000Y129110D02*
D03*
D50*
X70000Y55500D02*
D03*
X75000D02*
D03*
D51*
X80000D02*
D03*
M02*
