G04*
G04 #@! TF.GenerationSoftware,Altium Limited,Altium Designer,23.0.1 (38)*
G04*
G04 Layer_Physical_Order=3*
G04 Layer_Color=16440176*
%FSLAX25Y25*%
%MOIN*%
G70*
G04*
G04 #@! TF.SameCoordinates,382624F3-9DB8-427B-A981-9488CFEE9D80*
G04*
G04*
G04 #@! TF.FilePolarity,Positive*
G04*
G01*
G75*
%ADD11C,0.01000*%
%ADD45C,0.02000*%
%ADD47C,0.03000*%
%ADD48O,0.03740X0.05906*%
%ADD49R,0.03740X0.05906*%
%ADD50O,0.03543X0.07874*%
%ADD51O,0.03543X0.07874*%
%ADD52C,0.02559*%
%ADD53C,0.02362*%
G36*
X102362Y58071D02*
Y55118D01*
X97441D01*
X90551Y62008D01*
X81693D01*
Y67913D01*
X92520D01*
X102362Y58071D01*
D02*
G37*
G36*
X33169Y80422D02*
X32910Y79973D01*
X32721Y79266D01*
Y78534D01*
X32910Y77827D01*
X33169Y77378D01*
Y68783D01*
X32893Y68624D01*
X32376Y68107D01*
X32010Y67473D01*
X31820Y66766D01*
Y66034D01*
X32010Y65327D01*
X32376Y64693D01*
X32893Y64176D01*
X33169Y64016D01*
Y60827D01*
X42815Y51181D01*
X49231D01*
X49527Y51010D01*
X50234Y50820D01*
X50966D01*
X51673Y51010D01*
X51969Y51181D01*
X64862Y51181D01*
X67520Y48524D01*
X90291D01*
X90856Y48197D01*
X91563Y48008D01*
X92295D01*
X93002Y48197D01*
X93567Y48524D01*
X116043D01*
X117937Y50417D01*
X118100Y50461D01*
X118734Y50827D01*
X119252Y51345D01*
X119618Y51978D01*
X119661Y52142D01*
X119882Y52362D01*
Y56102D01*
X126083D01*
Y49803D01*
X113779Y37500D01*
X46457D01*
X24814Y59143D01*
X24964Y59700D01*
X25373Y59810D01*
X26007Y60176D01*
X26524Y60693D01*
X26890Y61327D01*
X27079Y62034D01*
Y62766D01*
X26890Y63473D01*
X26524Y64107D01*
X26007Y64624D01*
X25373Y64990D01*
X24666Y65180D01*
X23934D01*
X23227Y64990D01*
X23071Y64900D01*
X22638Y65150D01*
Y107887D01*
X33169D01*
Y80422D01*
D02*
G37*
%LPC*%
G36*
X69460Y45299D02*
X68729D01*
X68022Y45110D01*
X67388Y44744D01*
X66870Y44226D01*
X66504Y43593D01*
X66315Y42886D01*
Y42154D01*
X66504Y41447D01*
X66870Y40813D01*
X67388Y40295D01*
X68022Y39930D01*
X68729Y39740D01*
X69460D01*
X70167Y39930D01*
X70801Y40295D01*
X71319Y40813D01*
X71685Y41447D01*
X71874Y42154D01*
Y42886D01*
X71685Y43593D01*
X71319Y44226D01*
X70801Y44744D01*
X70167Y45110D01*
X69460Y45299D01*
D02*
G37*
%LPD*%
D11*
X102657Y52165D02*
X105118Y54626D01*
X44000Y11000D02*
Y34800D01*
X29200Y49600D02*
X44000Y34800D01*
X38878Y100394D02*
X45372Y93900D01*
X76600D01*
X38878Y100394D02*
Y112622D01*
X71503Y96700D02*
X77658Y102854D01*
Y103150D01*
X71398Y89577D02*
Y89900D01*
Y89577D02*
X75149Y85827D01*
X76600Y93900D02*
X79800Y90700D01*
X29000Y122500D02*
X38878Y112622D01*
X75149Y85827D02*
X82173D01*
X49200Y96700D02*
X71503D01*
X78051Y123721D02*
X116339D01*
X72146Y117815D02*
X78051Y123721D01*
X46300Y122200D02*
X54626D01*
X118476Y128586D02*
X119000Y129110D01*
X116339Y123721D02*
X118476Y125858D01*
Y128586D01*
X67106Y136200D02*
X132400D01*
X64000Y129110D02*
Y133095D01*
X67106Y136200D01*
X132400D02*
X138583Y130017D01*
Y98032D02*
Y130017D01*
X82173Y85827D02*
X105118Y62882D01*
Y54626D02*
Y62882D01*
X29000Y122500D02*
Y129110D01*
X44000Y124500D02*
Y129110D01*
Y124500D02*
X46300Y122200D01*
D45*
X82480Y64295D02*
X82504Y64272D01*
X91634D01*
X100492Y55413D01*
X64764Y99902D02*
X67218D01*
X88182Y120866D01*
X95276D01*
D47*
X30000Y61100D02*
X42675Y48425D01*
X122638Y52738D02*
Y54528D01*
X114700Y44800D02*
X122638Y52738D01*
X73619Y44800D02*
X114700D01*
X30000Y61100D02*
Y106200D01*
D48*
X39000Y11000D02*
D03*
X59000Y129110D02*
D03*
X24000Y11000D02*
D03*
X19000D02*
D03*
X29000D02*
D03*
X34000D02*
D03*
X44000D02*
D03*
X49000D02*
D03*
X54000D02*
D03*
X59000D02*
D03*
X64000D02*
D03*
X69000D02*
D03*
X74000D02*
D03*
X79000D02*
D03*
X84000D02*
D03*
X89000D02*
D03*
X94000D02*
D03*
X99000D02*
D03*
X104000D02*
D03*
X109000D02*
D03*
X114000D02*
D03*
X119000D02*
D03*
X124000D02*
D03*
X129000D02*
D03*
X124000Y129110D02*
D03*
X119000D02*
D03*
X114000D02*
D03*
X109000D02*
D03*
X104000D02*
D03*
X99000D02*
D03*
X94000D02*
D03*
X89000D02*
D03*
X84000D02*
D03*
X79000D02*
D03*
X74000D02*
D03*
X69000D02*
D03*
X64000D02*
D03*
X54000D02*
D03*
X49000D02*
D03*
X44000D02*
D03*
X39000D02*
D03*
X34000D02*
D03*
X29000D02*
D03*
X24000D02*
D03*
X19000D02*
D03*
X14000D02*
D03*
D49*
Y11000D02*
D03*
X129000Y129110D02*
D03*
D50*
X70000Y55500D02*
D03*
X75000D02*
D03*
D51*
X80000D02*
D03*
D52*
X68442Y107459D02*
D03*
X129429Y52756D02*
D03*
X136713Y57382D02*
D03*
X102461Y32480D02*
D03*
X102657Y52165D02*
D03*
X110925Y32972D02*
D03*
X113705Y73425D02*
D03*
X99213Y30610D02*
D03*
X28445Y41634D02*
D03*
X69095Y42520D02*
D03*
X82480Y64295D02*
D03*
X65650Y20472D02*
D03*
X58268Y106004D02*
D03*
X77658Y103150D02*
D03*
X85538Y107434D02*
D03*
X100492Y55413D02*
D03*
X71933Y74252D02*
D03*
X71398Y89900D02*
D03*
X97736Y81102D02*
D03*
X88386Y104331D02*
D03*
X53642Y105709D02*
D03*
X64764Y99902D02*
D03*
X50000Y21555D02*
D03*
X130905Y75197D02*
D03*
X134465Y75100D02*
D03*
X6004Y87697D02*
D03*
X125492Y41240D02*
D03*
X54626Y122244D02*
D03*
X95276Y120866D02*
D03*
X72146Y117815D02*
D03*
X109646Y100492D02*
D03*
X130807Y63287D02*
D03*
X138583Y98032D02*
D03*
X117717Y27362D02*
D03*
X117028Y53051D02*
D03*
X91929Y50787D02*
D03*
X92421Y55512D02*
D03*
X95177Y20177D02*
D03*
X115453Y93701D02*
D03*
X122638Y54528D02*
D03*
X89272Y28543D02*
D03*
X122400Y105100D02*
D03*
X39700Y64500D02*
D03*
X63300Y85000D02*
D03*
X30000Y106200D02*
D03*
X35500Y78900D02*
D03*
X47900Y74400D02*
D03*
X44200Y87700D02*
D03*
X81000Y81000D02*
D03*
X97400Y89781D02*
D03*
X79800Y90700D02*
D03*
X75700Y90600D02*
D03*
X49200Y96700D02*
D03*
X132500Y97100D02*
D03*
X62900Y68700D02*
D03*
X18300Y43300D02*
D03*
X50600Y53600D02*
D03*
X34600Y66400D02*
D03*
X24300Y62400D02*
D03*
X29200Y49600D02*
D03*
X16000Y36000D02*
D03*
D53*
X140256Y31693D02*
D03*
X142421Y59646D02*
D03*
X64075Y31004D02*
D03*
M02*
