G04*
G04 #@! TF.GenerationSoftware,Altium Limited,Altium Designer,23.0.1 (38)*
G04*
G04 Layer_Color=128*
%FSLAX25Y25*%
%MOIN*%
G70*
G04*
G04 #@! TF.SameCoordinates,382624F3-9DB8-427B-A981-9488CFEE9D80*
G04*
G04*
G04 #@! TF.FilePolarity,Positive*
G04*
G01*
G75*
%ADD13C,0.00500*%
D13*
X37425Y11000D02*
X40575D01*
X39000Y9425D02*
Y12575D01*
X57425Y129110D02*
X60575D01*
X59000Y127535D02*
Y130685D01*
X22425Y11000D02*
X25575D01*
X24000Y9425D02*
Y12575D01*
X12425Y11000D02*
X15575D01*
X14000Y9425D02*
Y12575D01*
X17425Y11000D02*
X20575D01*
X19000Y9425D02*
Y12575D01*
X27425Y11000D02*
X30575D01*
X29000Y9425D02*
Y12575D01*
X32425Y11000D02*
X35575D01*
X34000Y9425D02*
Y12575D01*
X42425Y11000D02*
X45575D01*
X44000Y9425D02*
Y12575D01*
X47425Y11000D02*
X50575D01*
X49000Y9425D02*
Y12575D01*
X52425Y11000D02*
X55575D01*
X54000Y9425D02*
Y12575D01*
X57425Y11000D02*
X60575D01*
X59000Y9425D02*
Y12575D01*
X62425Y11000D02*
X65575D01*
X64000Y9425D02*
Y12575D01*
X67425Y11000D02*
X70575D01*
X69000Y9425D02*
Y12575D01*
X72425Y11000D02*
X75575D01*
X74000Y9425D02*
Y12575D01*
X77425Y11000D02*
X80575D01*
X79000Y9425D02*
Y12575D01*
X82425Y11000D02*
X85575D01*
X84000Y9425D02*
Y12575D01*
X87425Y11000D02*
X90575D01*
X89000Y9425D02*
Y12575D01*
X92425Y11000D02*
X95575D01*
X94000Y9425D02*
Y12575D01*
X97425Y11000D02*
X100575D01*
X99000Y9425D02*
Y12575D01*
X102425Y11000D02*
X105575D01*
X104000Y9425D02*
Y12575D01*
X107425Y11000D02*
X110575D01*
X109000Y9425D02*
Y12575D01*
X112425Y11000D02*
X115575D01*
X114000Y9425D02*
Y12575D01*
X117425Y11000D02*
X120575D01*
X119000Y9425D02*
Y12575D01*
X122425Y11000D02*
X125575D01*
X124000Y9425D02*
Y12575D01*
X127425Y11000D02*
X130575D01*
X129000Y9425D02*
Y12575D01*
X127425Y129110D02*
X130575D01*
X129000Y127535D02*
Y130685D01*
X122425Y129110D02*
X125575D01*
X124000Y127535D02*
Y130685D01*
X117425Y129110D02*
X120575D01*
X119000Y127535D02*
Y130685D01*
X112425Y129110D02*
X115575D01*
X114000Y127535D02*
Y130685D01*
X107425Y129110D02*
X110575D01*
X109000Y127535D02*
Y130685D01*
X102425Y129110D02*
X105575D01*
X104000Y127535D02*
Y130685D01*
X97425Y129110D02*
X100575D01*
X99000Y127535D02*
Y130685D01*
X92425Y129110D02*
X95575D01*
X94000Y127535D02*
Y130685D01*
X87425Y129110D02*
X90575D01*
X89000Y127535D02*
Y130685D01*
X82425Y129110D02*
X85575D01*
X84000Y127535D02*
Y130685D01*
X77425Y129110D02*
X80575D01*
X79000Y127535D02*
Y130685D01*
X72425Y129110D02*
X75575D01*
X74000Y127535D02*
Y130685D01*
X67425Y129110D02*
X70575D01*
X69000Y127535D02*
Y130685D01*
X62425Y129110D02*
X65575D01*
X64000Y127535D02*
Y130685D01*
X52425Y129110D02*
X55575D01*
X54000Y127535D02*
Y130685D01*
X47425Y129110D02*
X50575D01*
X49000Y127535D02*
Y130685D01*
X42425Y129110D02*
X45575D01*
X44000Y127535D02*
Y130685D01*
X37425Y129110D02*
X40575D01*
X39000Y127535D02*
Y130685D01*
X32425Y129110D02*
X35575D01*
X34000Y127535D02*
Y130685D01*
X27425Y129110D02*
X30575D01*
X29000Y127535D02*
Y130685D01*
X22425Y129110D02*
X25575D01*
X24000Y127535D02*
Y130685D01*
X17425Y129110D02*
X20575D01*
X19000Y127535D02*
Y130685D01*
X12425Y129110D02*
X15575D01*
X14000Y127535D02*
Y130685D01*
X68622Y55500D02*
X71378D01*
X70000Y54122D02*
Y56878D01*
X73622Y55500D02*
X76378D01*
X75000Y54122D02*
Y56878D01*
X78622Y55500D02*
X81378D01*
X80000Y54122D02*
Y56878D01*
X67654Y107459D02*
X69229D01*
X68442Y106672D02*
Y108247D01*
X128642Y52756D02*
X130217D01*
X129429Y51968D02*
Y53543D01*
X139567Y31693D02*
X140945D01*
X140256Y31004D02*
Y32382D01*
X141732Y59646D02*
X143110D01*
X142421Y58957D02*
Y60335D01*
X135925Y57382D02*
X137500D01*
X136713Y56595D02*
Y58169D01*
X101673Y32480D02*
X103248D01*
X102461Y31693D02*
Y33268D01*
X101870Y52165D02*
X103445D01*
X102657Y51378D02*
Y52953D01*
X110138Y32972D02*
X111713D01*
X110925Y32185D02*
Y33760D01*
X112917Y73425D02*
X114492D01*
X113705Y72638D02*
Y74213D01*
X98425Y30610D02*
X100000D01*
X99213Y29823D02*
Y31398D01*
X27657Y41634D02*
X29232D01*
X28445Y40846D02*
Y42421D01*
X68307Y42520D02*
X69882D01*
X69095Y41732D02*
Y43307D01*
X81693Y64295D02*
X83268D01*
X82480Y63508D02*
Y65083D01*
X63386Y31004D02*
X64764D01*
X64075Y30315D02*
Y31693D01*
X64862Y20472D02*
X66437D01*
X65650Y19685D02*
Y21260D01*
X57480Y106004D02*
X59055D01*
X58268Y105217D02*
Y106791D01*
X76870Y103150D02*
X78445D01*
X77658Y102362D02*
Y103937D01*
X84750Y107434D02*
X86325D01*
X85538Y106647D02*
Y108221D01*
X99705Y55413D02*
X101279D01*
X100492Y54626D02*
Y56201D01*
X71146Y74252D02*
X72721D01*
X71933Y73465D02*
Y75039D01*
X70611Y89900D02*
X72186D01*
X71398Y89113D02*
Y90687D01*
X96949Y81102D02*
X98524D01*
X97736Y80315D02*
Y81890D01*
X87598Y104331D02*
X89173D01*
X88386Y103543D02*
Y105118D01*
X52854Y105709D02*
X54429D01*
X53642Y104921D02*
Y106496D01*
X63976Y99902D02*
X65551D01*
X64764Y99114D02*
Y100689D01*
X49213Y21555D02*
X50787D01*
X50000Y20768D02*
Y22343D01*
X130118Y75197D02*
X131693D01*
X130905Y74410D02*
Y75984D01*
X133677Y75100D02*
X135252D01*
X134465Y74313D02*
Y75887D01*
X5217Y87697D02*
X6791D01*
X6004Y86910D02*
Y88484D01*
X124705Y41240D02*
X126279D01*
X125492Y40453D02*
Y42028D01*
X53839Y122244D02*
X55413D01*
X54626Y121457D02*
Y123031D01*
X94488Y120866D02*
X96063D01*
X95276Y120079D02*
Y121653D01*
X71358Y117815D02*
X72933D01*
X72146Y117028D02*
Y118602D01*
X108858Y100492D02*
X110433D01*
X109646Y99705D02*
Y101279D01*
X130020Y63287D02*
X131595D01*
X130807Y62500D02*
Y64075D01*
X137795Y98032D02*
X139370D01*
X138583Y97244D02*
Y98819D01*
X116929Y27362D02*
X118504D01*
X117717Y26575D02*
Y28150D01*
X116240Y53051D02*
X117815D01*
X117028Y52264D02*
Y53839D01*
X91142Y50787D02*
X92716D01*
X91929Y50000D02*
Y51575D01*
X91634Y55512D02*
X93209D01*
X92421Y54724D02*
Y56299D01*
X94390Y20177D02*
X95965D01*
X95177Y19390D02*
Y20965D01*
X114665Y93701D02*
X116240D01*
X115453Y92913D02*
Y94488D01*
X121850Y54528D02*
X123425D01*
X122638Y53740D02*
Y55315D01*
X88484Y28543D02*
X90059D01*
X89272Y27756D02*
Y29331D01*
X121613Y105100D02*
X123187D01*
X122400Y104313D02*
Y105887D01*
X38913Y64500D02*
X40487D01*
X39700Y63713D02*
Y65287D01*
X62513Y85000D02*
X64087D01*
X63300Y84213D02*
Y85787D01*
X29213Y106200D02*
X30787D01*
X30000Y105413D02*
Y106987D01*
X34713Y78900D02*
X36287D01*
X35500Y78113D02*
Y79687D01*
X47113Y74400D02*
X48687D01*
X47900Y73613D02*
Y75187D01*
X43413Y87700D02*
X44987D01*
X44200Y86913D02*
Y88487D01*
X80213Y81000D02*
X81787D01*
X81000Y80213D02*
Y81787D01*
X96613Y89781D02*
X98187D01*
X97400Y88994D02*
Y90569D01*
X79013Y90700D02*
X80587D01*
X79800Y89913D02*
Y91487D01*
X74913Y90600D02*
X76487D01*
X75700Y89813D02*
Y91387D01*
X48413Y96700D02*
X49987D01*
X49200Y95913D02*
Y97487D01*
X131713Y97100D02*
X133287D01*
X132500Y96313D02*
Y97887D01*
X62113Y68700D02*
X63687D01*
X62900Y67913D02*
Y69487D01*
X17513Y43300D02*
X19087D01*
X18300Y42513D02*
Y44087D01*
X49813Y53600D02*
X51387D01*
X50600Y52813D02*
Y54387D01*
X33813Y66400D02*
X35387D01*
X34600Y65613D02*
Y67187D01*
X23513Y62400D02*
X25087D01*
X24300Y61613D02*
Y63187D01*
X28413Y49600D02*
X29987D01*
X29200Y48813D02*
Y50387D01*
X15213Y36000D02*
X16787D01*
X16000Y35213D02*
Y36787D01*
M02*
