M48
;Layer_Color=9474304
;FILE_FORMAT=2:5
INCH,TZ
;TYPE=PLATED
T1F00S00C0.01378
T2F00S00C0.01575
T3F00S00C0.02756
T4F00S00C0.03150
%
T01
X64075Y31004
X140256Y31693
X142421Y59646
T02
X16000Y36000
X28445Y41634
X50000Y21555
X65650Y20472
X95177Y20177
X89272Y28543
X99213Y30610
X102461Y32480
X110925Y32972
X117717Y27362
X125492Y41240
X129429Y52756
X122638Y54528
X117028Y53051
X102657Y52165
X100492Y55413
X92421Y55512
X91929Y50787
X82480Y64295
X81000Y81000
X79800Y90700
X75700Y90600
X71398Y89900
X63300Y85000
X64764Y99902
X68442Y107459
X58268Y106004
X53642Y105709
X49200Y96700
X44200Y87700
X47900Y74400
X39700Y64500
X50600Y53600
X62900Y68700
X71933Y74252
X97736Y81102
X97400Y89781
X115453Y93701
X109646Y100492
X122400Y105100
X132500Y97100
X138583Y98032
X134465Y75100
X130905Y75197
X130807Y63287
X136713Y57382
X113705Y73425
X88386Y104331
X85538Y107434
X77658Y103150
X72146Y117815
X54626Y122244
X95276Y120866
X69095Y42520
X29200Y49600
X18300Y43300
X24300Y62400
X34600Y66400
X35500Y78900
X30000Y106200
X6004Y87697
T03
X70000Y55500
X75000
X80000
T04
X14000Y11000
X19000
X24000
X29000
X34000
X39000
X44000
X49000
X54000
X59000
X64000
X69000
X74000
X79000
X84000
X89000
X94000
X99000
X104000
X109000
X114000
X119000
X124000
X129000
Y129110
X124000
X119000
X114000
X109000
X104000
X99000
X94000
X89000
X84000
X79000
X74000
X69000
X64000
X59000
X54000
X49000
X44000
X39000
X34000
X29000
X24000
X19000
X14000
M30
